<svg version="1.0" xmlns="http://www.w3.org/2000/svg"
 width="128.000000pt" height="128.000000pt" viewBox="0 0 128.000000 128.000000"
 preserveAspectRatio="xMidYMid meet"  style="background-color:white;">

<g transform="translate(0.000000,128.000000) scale(0.100000,-0.100000)"
fill="#000000" stroke="none">
<path d="M257 1183 c-118 -63 -211 -163 -193 -209 6 -15 12 -9 35 31 37 64
123 146 189 179 48 24 63 36 45 36 -5 0 -39 -17 -76 -37z"/>
<path d="M680 1190 c-14 -4 -56 -6 -95 -5 -38 2 -58 1 -42 -1 61 -12 22 -30
-93 -44 -36 -5 -81 -12 -100 -16 -51 -10 -31 4 42 32 35 12 54 23 43 23 -28 1
-148 -57 -141 -68 3 -5 -19 -21 -50 -37 -62 -31 -134 -103 -134 -134 0 -29 5
-25 36 27 15 26 29 42 31 36 4 -12 0 -20 -38 -89 -9 -16 -19 -46 -22 -66 l-6
-38 33 43 c18 23 38 41 45 39 6 -1 11 4 11 10 1 22 63 86 110 113 35 20 39 24
19 21 -14 -2 -45 -14 -68 -25 -36 -19 -41 -19 -41 -5 0 27 72 91 115 102 80
21 118 26 111 13 -5 -8 5 -7 30 4 37 15 50 15 163 -7 38 -7 50 -13 40 -19 -9
-6 5 -9 41 -10 70 -3 71 -3 98 -18 13 -7 26 -10 28 -8 6 6 -100 71 -147 91
l-34 14 29 8 c23 5 40 1 70 -16 23 -12 35 -17 29 -9 -20 20 -16 27 15 23 27
-4 27 -4 2 4 -43 15 -104 20 -130 12z m25 -51 c47 -22 72 -45 39 -36 -11 3
-54 14 -96 23 -47 11 -73 21 -65 26 22 14 77 8 122 -13z"/>
<path d="M1020 1074 c-57 -15 -116 -49 -125 -72 -2 -7 10 -2 28 12 44 33 106
48 169 40 58 -8 70 -18 61 -51 -4 -19 -1 -23 18 -23 22 0 22 0 3 16 -16 13
-16 15 -1 10 10 -3 17 0 17 8 0 8 3 21 6 30 5 12 0 16 -18 16 -13 0 -28 4 -33
9 -19 18 -71 20 -125 5z"/>
<path d="M580 1070 c-12 -8 -12 -10 5 -10 11 0 27 5 35 10 12 8 12 10 -5 10
-11 0 -27 -5 -35 -10z"/>
<path d="M1005 1030 c-48 -12 -80 -27 -92 -42 -10 -12 -6 -13 22 -10 49 6 43
-8 -18 -44 -29 -16 -51 -36 -49 -43 2 -8 -4 -10 -16 -7 -11 4 -24 0 -31 -7 -6
-8 -29 -22 -51 -32 -22 -10 -40 -24 -40 -32 0 -11 5 -11 29 2 17 8 37 12 45 9
10 -4 16 -1 16 9 0 23 211 97 278 97 17 0 32 5 32 10 0 6 -7 10 -15 10 -8 0
-15 4 -15 8 0 13 -64 32 -110 32 -33 0 -41 3 -33 11 17 17 92 28 126 18 18 -5
27 -5 21 0 -14 14 -66 20 -99 11z m68 -81 c-6 -6 -33 -13 -60 -16 l-48 -4 30
15 c37 18 94 21 78 5z"/>
<path d="M496 1021 c-4 -5 12 -7 36 -4 57 8 61 13 10 13 -22 0 -43 -4 -46 -9z"/>
<path d="M640 1011 c0 -5 -8 -12 -17 -14 -10 -2 -5 -3 11 -1 16 2 58 5 95 5
51 1 59 3 36 9 -44 11 -125 12 -125 1z"/>
<path d="M1131 984 c0 -11 3 -14 6 -6 3 7 2 16 -1 19 -3 4 -6 -2 -5 -13z"/>
<path d="M558 983 c7 -3 16 -2 19 1 4 3 -2 6 -13 5 -11 0 -14 -3 -6 -6z"/>
<path d="M310 960 c-40 -21 -137 -116 -128 -126 3 -3 30 19 60 48 29 30 67 64
83 76 37 26 31 27 -15 2z"/>
<path d="M491 969 c-14 -5 -30 -8 -38 -5 -7 3 -15 1 -18 -5 -4 -5 -33 -23 -65
-39 -32 -16 -62 -34 -65 -41 -4 -6 12 -1 35 11 65 33 58 17 -15 -35 -37 -26
-71 -58 -77 -71 -6 -13 -19 -24 -30 -24 -23 0 -23 11 3 46 l21 29 -26 -28
c-14 -15 -26 -35 -26 -42 0 -8 -11 -17 -25 -21 -14 -3 -25 -10 -25 -15 0 -11
-6 -12 60 6 79 21 80 20 54 -32 -13 -25 -24 -54 -24 -64 0 -31 -17 -30 -30 1
-11 26 -30 33 -30 11 0 -15 55 -90 103 -139 45 -48 49 -50 90 -45 78 9 143 33
169 61 24 26 69 133 72 170 3 38 30 62 68 62 21 0 38 5 38 11 0 6 -17 9 -42 7
-33 -2 -45 -8 -53 -25 -5 -13 -16 -23 -24 -23 -9 0 -11 -7 -8 -21 3 -12 3 -18
0 -15 -3 3 -14 -11 -24 -31 -11 -21 -15 -41 -10 -46 16 -16 -14 -59 -60 -82
-25 -13 -73 -29 -106 -36 -54 -11 -63 -11 -78 4 -9 9 -20 17 -25 17 -5 0 -18
17 -29 37 -19 37 -19 38 0 86 11 27 34 66 52 87 28 35 40 40 100 50 37 7 67
17 67 23 0 8 3 7 9 -2 6 -9 11 -10 15 -2 4 6 17 12 29 12 29 2 -67 17 -113 18
-36 1 -69 -13 -58 -24 3 -4 15 -1 26 6 11 7 27 9 38 4 17 -6 15 -9 -11 -16
-16 -5 -38 -7 -47 -5 -10 2 -21 0 -24 -5 -3 -5 -17 -9 -31 -9 -25 0 -26 0 -8
20 10 11 15 20 10 20 -4 0 -2 7 5 15 7 8 17 15 22 15 6 0 4 -8 -3 -17 -12 -14
-10 -14 14 1 31 21 35 28 10 20 -15 -5 -15 -3 1 10 23 18 40 21 30 5 -4 -7 2
-7 17 1 35 18 38 23 9 16 -21 -6 -22 -5 -7 4 9 6 15 15 12 20 -7 11 7 20 75
47 30 12 48 22 40 22 -8 0 -26 -5 -39 -10z"/>
<path d="M840 969 c0 -5 -4 -7 -10 -4 -5 3 -10 1 -10 -4 0 -6 7 -11 15 -11 8
0 15 7 15 15 0 8 -2 15 -5 15 -3 0 -5 -5 -5 -11z"/>
<path d="M598 962 c7 -5 -7 -8 -35 -8 -27 1 -70 -7 -96 -18 -67 -25 -53 -30
18 -6 32 11 68 20 79 19 12 0 -4 -9 -34 -18 -31 -10 -65 -23 -75 -30 -20 -12
-20 -12 0 -5 64 23 196 54 235 55 103 3 103 17 0 18 -58 0 -99 -3 -92 -7z"/>
<path d="M1080 900 c0 -5 8 -10 18 -10 46 0 54 -55 22 -151 -21 -62 -19 -89 5
-69 8 7 20 8 26 4 9 -5 10 -2 6 9 -7 19 17 83 30 79 4 -1 9 24 10 55 1 32 0
51 -3 43 -3 -8 -9 -24 -14 -35 -5 -11 -10 -27 -13 -35 -2 -8 -7 6 -11 31 -4
25 -16 56 -27 68 -21 22 -49 28 -49 11z"/>
<path d="M938 811 c-44 -35 -48 -103 -8 -116 28 -9 79 21 86 52 8 28 -15 76
-38 81 -8 1 -26 -6 -40 -17z"/>
<path d="M773 782 c-18 -48 -25 -51 -41 -19 -8 17 -11 18 -11 5 -1 -22 20 -68
31 -68 4 0 8 -8 8 -18 0 -27 42 -62 85 -72 53 -12 215 15 239 40 12 13 -20 9
-131 -16 -94 -21 -135 -8 -166 53 -17 32 -14 85 6 111 5 7 7 15 3 19 -3 4 -14
-12 -23 -35z"/>
<path d="M578 763 c5 -21 7 -23 10 -9 2 10 0 22 -6 28 -6 6 -7 0 -4 -19z"/>
<path d="M530 756 c0 -2 8 -10 18 -17 15 -13 16 -12 3 4 -13 16 -21 21 -21 13z"/>
<path d="M165 690 c-3 -5 -1 -10 4 -10 6 0 11 5 11 10 0 6 -2 10 -4 10 -3 0
-8 -4 -11 -10z"/>
<path d="M361 676 c-37 -44 -29 -126 12 -126 11 0 35 -5 53 -12 29 -10 36 -9
54 7 26 24 25 51 -2 91 -34 50 -92 70 -117 40z"/>
<path d="M1161 634 c0 -11 3 -14 6 -6 3 7 2 16 -1 19 -3 4 -6 -2 -5 -13z"/>
<path d="M1160 595 c0 -15 -55 -55 -76 -55 -6 0 -15 15 -20 33 -7 27 -9 22
-12 -38 -3 -66 -4 -71 -34 -88 -22 -12 -34 -14 -43 -7 -9 8 -14 6 -18 -5 -4
-9 -13 -12 -23 -8 -12 4 -15 2 -12 -8 3 -8 18 -14 34 -14 26 -1 29 -4 32 -38
3 -29 0 -36 -11 -31 -8 3 -28 -10 -48 -31 -19 -19 -40 -33 -47 -30 -7 2 -17
-6 -22 -20 -11 -30 -49 -48 -68 -32 -9 7 -16 7 -24 -1 -6 -6 -17 -8 -24 -5 -9
3 -14 -2 -14 -17 0 -16 -4 -20 -16 -16 -12 4 -15 2 -10 -9 3 -8 1 -15 -4 -15
-6 0 -10 5 -10 10 0 6 -7 10 -15 10 -8 0 -15 4 -15 10 0 15 -59 42 -79 35 -13
-4 -20 1 -24 16 -5 19 -8 20 -22 9 -13 -11 -19 -11 -33 3 -15 16 -15 17 6 17
12 0 22 4 22 10 0 26 70 43 224 55 27 2 54 9 59 14 6 6 15 11 19 11 17 0 6
-16 -26 -38 -25 -17 -61 -26 -137 -36 -98 -12 -102 -14 -74 -25 19 -8 59 -11
106 -9 115 7 198 58 211 132 4 24 -39 30 -64 9 -11 -10 -18 -11 -23 -4 -10 17
-22 13 -28 -9 -3 -13 -11 -18 -20 -14 -8 3 -18 1 -22 -5 -4 -8 -12 -8 -25 -1
-12 7 -21 7 -25 0 -3 -5 -26 -8 -50 -5 -25 2 -45 0 -45 -4 0 -4 -13 -7 -30 -6
-16 1 -30 -2 -30 -8 0 -5 -7 -7 -15 -3 -9 3 -15 0 -15 -9 0 -8 -4 -15 -10 -15
-5 0 -10 7 -10 15 0 8 -4 15 -10 15 -5 0 -10 -4 -10 -10 0 -5 -4 -10 -10 -10
-5 0 -10 8 -10 17 0 15 -2 14 -16 -3 -8 -10 -13 -13 -9 -6 3 6 2 12 -4 12 -5
0 -13 14 -16 32 -4 17 -14 45 -22 62 l-14 31 5 -43 c3 -32 0 -45 -12 -52 -15
-9 -15 -10 2 -8 15 2 22 -6 29 -32 5 -19 14 -41 20 -48 6 -8 10 -29 9 -47 -2
-28 2 -34 23 -39 14 -4 25 -11 25 -16 0 -6 5 -10 11 -10 7 0 22 -11 35 -25 13
-14 32 -25 43 -25 11 0 25 -8 30 -19 8 -14 26 -19 89 -23 43 -3 88 -12 99 -19
17 -10 27 -10 56 4 19 9 42 17 51 17 21 0 66 29 86 54 8 11 30 47 48 80 24 44
31 67 27 88 -5 20 -2 30 9 34 13 5 16 24 16 99 0 86 1 93 18 88 13 -3 28 6 45
27 24 28 36 60 22 60 -3 0 -5 -7 -5 -15z m-120 -234 c0 -5 -7 -14 -15 -21 -10
-9 -15 -9 -15 -1 0 6 5 11 12 11 6 0 3 10 -8 21 -19 22 -19 22 4 10 12 -6 22
-15 22 -20z m-63 -62 c-14 -8 -15 -14 -6 -32 12 -21 11 -21 -8 -4 -11 9 -23
14 -26 10 -4 -3 -7 0 -7 9 0 21 10 28 39 28 23 -1 24 -2 8 -11z m-51 -86 c-4
-4 -15 -2 -25 4 -16 10 -20 9 -24 -8 -5 -18 -27 -28 -27 -11 1 12 35 48 50 54
16 6 38 -27 26 -39z m-416 13 c0 -3 -4 -8 -10 -11 -5 -3 -10 -1 -10 4 0 6 5
11 10 11 6 0 10 -2 10 -4z m432 -48 c-7 -7 -12 -8 -12 -2 0 14 12 26 19 19 2
-3 -1 -11 -7 -17z m-34 -10 c-2 -14 2 -22 10 -20 6 1 12 -2 12 -6 0 -10 -21
-32 -31 -32 -10 0 -22 57 -14 70 11 18 26 10 23 -12z m-58 -30 c-1 -40 -2 -42
-15 -24 -16 21 -20 48 -8 59 15 16 23 4 23 -35z m-195 22 c3 -5 -3 -10 -14
-10 -12 0 -21 5 -21 10 0 6 6 10 14 10 8 0 18 -4 21 -10z m142 -2 c-20 -47
-34 -68 -44 -68 -18 0 -16 13 5 49 16 29 50 45 39 19z m-87 -40 c0 -5 -4 -8
-10 -8 -5 0 -10 10 -10 23 0 18 2 19 10 7 5 -8 10 -18 10 -22z"/>
<path d="M710 577 c0 -14 5 -29 10 -32 12 -7 13 -65 2 -80 -12 -17 -52 -36
-62 -30 -14 9 -12 -9 2 -23 16 -16 71 -15 86 0 7 7 22 13 35 13 17 0 22 6 22
25 0 18 -5 25 -18 24 -13 -1 -21 12 -33 51 -18 63 -44 93 -44 52z"/>
</g>
</svg>
